<?xml version="1.0" encoding="utf-8"?>
<!-- Uploaded to: SVG Repo, www.svgrepo.com, Generator: SVG Repo Mixer Tools -->
<!DOCTYPE svg PUBLIC "-//W3C//DTD SVG 1.1//EN" "http://www.w3.org/Graphics/SVG/1.1/DTD/svg11.dtd">
<svg fill="#000000" width="800px" height="800px" viewBox="0 0 1000 1000" version="1.1" xmlns="http://www.w3.org/2000/svg" xmlns:xlink="http://www.w3.org/1999/xlink"  enable-background="new 0 0 1000 1000" xml:space="preserve">

<g>
<g transform="translate(0.000000,511.000000) scale(0.100000,-0.100000)">
<path d="M3500,4775l-400-235l-12.5-1670L3075,1200l-855-612.5L1362.5-25v-1017.5V-2060L2215-3425l852.5-1365h250c190,0,245,7.5,230,30c-10,17.5-405,652.5-877.5,1410l-857.5,1375v875v872.5l622.5,445C2777.5,460,3062.5,660,3072.5,660c7.5,0,15-455,15-1012.5V-1365H3300h212.5v2832.5v2830l212.5,120l212.5,120l205-120L4350,4295l7.5-1767.5l5-1767.5H4575h212.5v432.5V1625l212.5,120c117.5,65,220,115,232.5,110c10-2.5,105-57.5,212.5-117.5l192.5-112.5v-432.5V760h210H6055l17.5,132.5c7.5,70,15,205,15,297.5v167.5l170,97.5c92.5,55,190,110,217.5,125c42.5,20,87.5,5,260-90l207.5-117.5l-10-305l-10-307.5H7130h207.5v210v210l197.5,115c107.5,62.5,207.5,117.5,220,120c12.5,5,120-47.5,240-112.5l215-120v-1280v-1280l-437.5-1165l-435-1167.5v-540v-540H7550h212.5v500v500L8200-2622.5l437.5,1165v1430c0,1115-7.5,1437.5-30,1457.5c-17.5,12.5-212.5,130-432.5,255l-400,232.5l-125-72.5c-67.5-37.5-165-92.5-215-120l-92.5-50l-410,210l-410,210L6315,1975c-245-140-172.5-157.5-717.5,160l-385,222.5l-205-122.5L4800,2115l-7.5,1207.5l-5,1207.5l-415,240C4145,4902.5,3945,5010,3930,5010C3912.5,5007.5,3720,4902.5,3500,4775z"/>
</g>
</g>
</svg>